<?xml version="1.0" encoding="UTF-8"?>
<svg id="Calque_2" data-name="Calque 2" xmlns="http://www.w3.org/2000/svg" viewBox="0 0 850 884">
  <defs>
    <style>
      .cls-1 {
        fill: #42210b;
      }

      .cls-1, .cls-2, .cls-3, .cls-4, .cls-5 {
        stroke-width: 0px;
      }

      .cls-2 {
        fill: #22c5c5;
      }

      .cls-3 {
        fill: #ff931e;
      }

      .cls-4 {
        fill: #fff;
      }

      .cls-5 {
        fill: #ff1d25;
      }
    </style>
  </defs>
  <g id="Calque_1-2" data-name="Calque 1">
    <g>
      <path class="cls-3" d="m361,622.5c-98.24,0-158.42-15.22-216.61-29.95-38.55-9.75-78.4-19.84-128.95-25.43-9.25-35.09-13.94-71.46-13.94-108.12,0-77.94,21.34-154.07,61.71-220.24,60.16,10.93,108.92,32.37,160.52,55.06,68.05,29.92,138.42,60.86,239.16,67.68,10.7.72,21.69,1.09,32.66,1.09,89.73,0,173.58-24.22,247.57-45.6,25.64-7.41,49.88-14.41,73.22-20.13,21.33,51.43,32.15,105.98,32.15,162.14,0,7.71-.21,15.47-.62,23.1-78.38,11.71-157.67,42.48-234.36,72.24-90.34,35.06-175.67,68.17-252.52,68.17Z"/>
      <path class="cls-4" d="m63.96,240.42c59.52,10.96,107.94,32.25,159.17,54.77,68.17,29.97,138.66,60.97,239.67,67.8,10.73.73,21.76,1.09,32.76,1.09,89.94,0,173.9-24.26,247.98-45.66,25.16-7.27,48.98-14.15,71.91-19.8,20.93,50.9,31.55,104.84,31.55,160.37,0,7.28-.19,14.6-.55,21.79-78.15,11.87-157.1,42.5-233.47,72.14-90.21,35-175.41,68.07-251.98,68.07-98.05,0-158.14-15.2-216.25-29.9-38.34-9.7-77.97-19.72-128.13-25.35-9.04-34.66-13.63-70.56-13.63-106.74,0-77.32,21.07-152.85,60.96-218.58m-1.49-3.32C22.84,301.69,0,377.68,0,459c0,37.86,4.95,74.56,14.25,109.5,127.51,13.92,182.86,55.5,346.75,55.5,143.37,0,318.17-115.61,488.31-140.6.46-8.07.69-16.21.69-24.4,0-58.09-11.66-113.46-32.76-163.9-92.16,22.42-201.07,65.99-321.68,65.99-10.76,0-21.62-.35-32.56-1.09-175.93-11.9-258.76-97.47-400.53-122.9h0Z"/>
    </g>
    <g>
      <path class="cls-5" d="m425,882.5c-47.99,0-95.07-7.96-139.94-23.67-43.37-15.18-83.82-37.27-120.22-65.65-36.04-28.1-67.15-61.6-92.47-99.59-25.32-37.99-44.19-79.48-56.1-123.37,49.79,5.6,89.23,15.58,127.38,25.23,58.37,14.77,118.73,30.04,217.35,30.04,77.41,0,162.99-33.21,253.6-68.37,76.34-29.62,155.25-60.25,233.1-71.97-13.58,222.96-198.9,397.34-422.71,397.34Z"/>
      <path class="cls-4" d="m846.09,486.92c-14.43,221.29-198.69,394.08-421.09,394.08-47.82,0-94.74-7.93-139.45-23.58-43.22-15.13-83.53-37.14-119.8-65.41-35.91-28-66.91-61.38-92.14-99.24-24.82-37.23-43.42-77.85-55.31-120.79,48.66,5.63,87.44,15.44,124.98,24.94,58.46,14.79,118.91,30.09,217.72,30.09,77.69,0,163.4-33.26,254.15-68.47,75.66-29.36,153.85-59.7,230.94-71.61m3.22-3.52c-170.14,24.99-344.94,140.6-488.31,140.6-163.89,0-219.24-41.58-346.75-55.5,48.29,181.65,213.89,315.5,410.75,315.5,226.53,0,411.67-177.23,424.31-400.6h0Z"/>
    </g>
    <g>
      <path class="cls-2" d="m495.56,359.59c-10.9,0-21.83-.36-32.46-1.08-100.22-6.78-170.34-37.61-238.16-67.43-51.44-22.62-100.06-44-160.04-55.06,37.13-59.84,88.98-109.89,150.08-144.85,63.64-36.42,136.26-55.67,210.02-55.67,85.16,0,167.27,25.17,237.46,72.79,68.03,46.15,120.8,110.36,152.72,185.78-23.26,5.71-47.38,12.68-72.88,20.04-73.8,21.32-157.44,45.48-246.74,45.48Z"/>
      <path class="cls-4" d="m425,37c84.86,0,166.68,25.08,236.62,72.53,33.71,22.87,63.92,50.46,89.79,81.99,25.31,30.85,46.06,64.99,61.7,101.51-22.76,5.64-46.33,12.45-71.22,19.64-73.7,21.29-157.23,45.42-246.32,45.42-10.87,0-21.76-.36-32.36-1.08-99.96-6.76-169.96-37.54-237.66-67.31-50.91-22.38-99.06-43.55-158.21-54.75,36.91-58.8,88.14-108,148.38-142.48,31.2-17.85,64.58-31.64,99.21-40.97,35.7-9.62,72.74-14.5,110.07-14.5m0-3c-153.4,0-287.81,81.27-362.53,203.1,141.77,25.43,224.6,111,400.53,122.9,10.95.74,21.79,1.09,32.56,1.09,120.6,0,229.53-43.57,321.68-65.99C753.09,141.75,601.63,34,425,34h0Z"/>
    </g>
    <path class="cls-1" d="m226.21,289.15c20.72-34.38,17.44-74.95,6.08-111.3C210.99,112.74,168.22,53.18,119,0c68.17,60.84,143.76,149.66,151.63,235.01,1.1,13.75.37,28.08-2.83,41.69-1.97,8.39-4.79,16.64-8.54,24.69,0,0-33.06-12.24-33.06-12.24h0Z"/>
  </g>
</svg>